<svg width="440" height="290" viewBox="0 0 440 290" fill="none" xmlns="http://www.w3.org/2000/svg">
<path d="M167.814 150.405C167.574 145.926 167.643 141.412 167.894 136.782C169.518 106.843 181.686 77.3874 204.537 54.5366C253.743 5.33056 333.52 5.32977 382.725 54.5343C431.929 103.739 431.929 183.516 382.723 232.722C333.517 281.928 253.739 281.929 204.534 232.725C181.657 209.847 169.42 180.36 167.814 150.405Z" stroke="#EB5851" stroke-width="14.4"/>
<path d="M360.38 148.962C362.756 146.091 362.549 141.881 359.902 139.257L324.265 103.62C322.455 101.758 319.783 101.015 317.271 101.675C314.76 102.335 312.798 104.297 312.138 106.808C311.478 109.32 312.221 111.992 314.083 113.802L337.47 137.189L279.081 137.19C279.339 141.997 279.262 146.781 279.002 151.588L337.39 151.587L314.082 174.895C312.22 176.705 311.477 179.378 312.137 181.889C312.797 184.401 314.759 186.362 317.27 187.022C319.782 187.683 322.454 186.939 324.264 185.077L359.902 149.439C360.069 149.288 360.228 149.129 360.38 148.962ZM279.002 151.588L181.794 151.589C177.978 151.685 174.417 148.168 174.396 144.351C174.375 140.534 177.897 137.138 181.714 137.191L279.081 137.19C277.384 105.531 264.446 74.3473 240.263 50.1645C188.246 -1.85186 103.91 -1.85081 51.8924 50.1669C-0.125307 102.185 -0.126348 186.521 51.8901 238.537C103.906 290.554 188.243 290.553 240.26 238.535C264.423 214.373 277.286 183.218 279.002 151.588Z" fill="#EB5851"/>
</svg>
